<svg width="24" height="24" viewBox="0 0 24 24" fill="none" xmlns="http://www.w3.org/2000/svg">
<path d="M10.92 23.04C10.7 21.74 10.12 20.34 9.18 18.84C8.24 17.32 6.9 15.91 5.16 14.61C3.44 13.31 1.72 12.48 1.30385e-06 12.12V10.86C1.7 10.46 3.33 9.72 4.89 8.64C6.47 7.54 7.79 6.22 8.85 4.68C9.93 3.1 10.62 1.54 10.92 -1.54972e-06H12.18C12.36 0.999997 12.72 2.03 13.26 3.09C13.8 4.13 14.49 5.13 15.33 6.09C16.19 7.03 17.15 7.88 18.21 8.64C19.79 9.76 21.4 10.5 23.04 10.86V12.12C21.94 12.34 20.8 12.79 19.62 13.47C18.46 14.15 17.38 14.96 16.38 15.9C15.38 16.82 14.56 17.79 13.92 18.81C12.98 20.31 12.4 21.72 12.18 23.04H10.92Z" fill="#8B7CFF"/>
</svg>
